<?xml version="1.0" standalone="no"?>
<!DOCTYPE svg PUBLIC "-//W3C//DTD SVG 20010904//EN"
 "http://www.w3.org/TR/2001/REC-SVG-20010904/DTD/svg10.dtd">
<svg version="1.0" xmlns="http://www.w3.org/2000/svg"
 width="300.000000pt" height="133.000000pt" viewBox="0 0 300.000000 133.000000"
 preserveAspectRatio="xMidYMid meet">
<metadata>
Created by potrace 1.10, written by Peter Selinger 2001-2011
</metadata>
<g transform="translate(0.000000,133.000000) scale(0.100000,-0.100000)"
fill="#000000" stroke="none">
<path d="M163 1240 c-12 -5 -26 -18 -32 -29 -7 -13 -11 -193 -11 -549 l0 -529
23 -21 c23 -22 29 -22 324 -22 281 0 302 1 324 19 l24 19 0 537 0 537 -28 24
-28 24 -287 -1 c-158 0 -297 -4 -309 -9z m611 -42 c14 -20 16 -86 16 -525 0
-302 -4 -512 -10 -527 l-10 -26 -298 0 c-218 0 -301 3 -310 12 -9 9 -12 141
-12 534 0 462 2 524 16 538 13 14 55 16 304 16 287 0 289 0 304 -22z"/>
<path d="M430 1165 c0 -12 13 -15 60 -15 47 0 60 3 60 15 0 12 -13 15 -60 15
-47 0 -60 -3 -60 -15z"/>
<path d="M190 700 l0 -430 280 0 280 0 -2 428 -3 427 -277 3 -278 2 0 -430z
m530 0 l0 -400 -250 0 -250 0 0 400 0 400 250 0 250 0 0 -400z"/>
<path d="M397 906 c-95 -35 -156 -135 -141 -233 26 -177 253 -245 371 -110 89
101 62 261 -54 325 -53 29 -126 37 -176 18z m174 -50 c147 -97 74 -336 -102
-336 -120 0 -215 125 -179 234 39 121 177 170 281 102z"/>
<path d="M410 705 c0 -79 4 -115 11 -115 17 0 159 103 159 115 0 12 -142 115
-159 115 -7 0 -11 -36 -11 -115z m74 43 c23 -18 42 -37 42 -43 0 -8 -78 -75
-88 -75 -2 0 -3 34 -3 75 0 41 1 75 3 75 2 0 22 -15 46 -32z"/>
<path d="M425 216 c-20 -31 -6 -63 31 -72 46 -12 85 51 52 84 -21 21 -66 14
-83 -12z m63 -19 c4 -21 -25 -34 -40 -19 -8 8 -8 16 2 27 16 19 34 15 38 -8z"/>
<path d="M960 675 l0 -125 90 0 90 0 0 26 0 27 -65 -6 -65 -6 0 104 0 105 -25
0 -25 0 0 -125z"/>
<path d="M1735 675 c0 -123 0 -125 23 -125 20 0 22 4 22 60 l0 60 33 0 c38 0
77 34 77 66 0 11 -9 30 -20 42 -17 18 -32 22 -78 22 l-57 0 0 -125z m104 72
c14 -18 4 -27 -31 -27 -21 0 -28 5 -28 20 0 24 41 28 59 7z"/>
<path d="M2310 675 l0 -125 59 0 c93 0 151 50 151 131 0 71 -63 119 -155 119
l-55 0 0 -125z m133 63 c23 -12 39 -53 31 -83 -8 -33 -33 -52 -76 -60 l-38 -7
0 86 0 86 33 -7 c17 -3 40 -10 50 -15z"/>
<path d="M1180 775 c-16 -19 -5 -47 17 -43 22 4 29 43 9 51 -8 3 -20 -1 -26
-8z"/>
<path d="M1996 713 c-3 -3 -22 -6 -41 -5 l-35 1 0 -79 c0 -73 2 -80 19 -80 17
0 20 8 23 53 2 42 7 54 25 62 12 5 24 17 26 27 5 19 -6 32 -17 21z"/>
<path d="M1170 630 c0 -79 0 -80 25 -80 25 0 25 1 25 80 0 79 0 80 -25 80 -25
0 -25 -1 -25 -80z"/>
<path d="M1281 684 c-43 -55 -11 -134 55 -134 20 0 44 4 54 10 22 12 42 64 33
88 -23 64 -104 85 -142 36z m99 -34 c12 -22 0 -55 -22 -63 -39 -13 -74 37 -48
68 18 21 57 19 70 -5z"/>
<path d="M1455 629 c0 -75 1 -79 22 -79 19 0 22 6 25 51 6 95 68 93 68 -2 0
-42 3 -49 20 -49 18 0 20 7 20 58 0 81 -20 101 -97 101 l-58 -1 0 -79z"/>
<path d="M2051 684 c-28 -36 -27 -85 2 -112 25 -23 75 -29 107 -12 22 12 42
64 33 88 -23 64 -104 85 -142 36z m99 -34 c16 -30 -4 -60 -40 -60 -32 0 -46
25 -35 60 4 14 15 20 35 20 19 0 33 -7 40 -20z"/>
<path d="M2572 687 c-25 -26 -29 -82 -8 -109 19 -26 57 -37 89 -25 36 12 29
33 -10 30 -20 -2 -36 4 -48 17 -18 20 -17 20 43 20 58 0 62 1 62 23 0 59 -87
88 -128 44z m78 -22 c11 -13 7 -15 -24 -15 -35 0 -49 13 -23 23 22 9 34 7 47
-8z"/>
<path d="M2726 673 c9 -21 23 -57 32 -80 12 -31 22 -43 37 -43 16 0 27 17 52
80 l31 80 -23 0 c-18 0 -26 -9 -37 -40 -7 -22 -17 -40 -23 -40 -5 0 -17 18
-25 40 -11 31 -19 40 -37 40 -23 0 -23 0 -7 -37z"/>
</g>
</svg>
