<?xml version="1.0" encoding="UTF-8"?>
<svg width="1200pt" height="1200pt" version="1.1" viewBox="0 0 1200 1200" xmlns="http://www.w3.org/2000/svg">
 <defs>
  <clipPath id="b">
   <path d="m222.14 240h743.86v447h-743.86z"/>
  </clipPath>
  <clipPath id="a">
   <path d="m222.14 711h743.86v249h-743.86z"/>
  </clipPath>
 </defs>
 <path d="m482.43 420.08v110.32l99.113 49.555v-120.23l-49.555-19.82z" fill="#fff" fill-rule="evenodd"/>
 <path d="m593.93 353.69-93.672 46.832 93.672 37.477 93.672-37.477z" fill="#fff" fill-rule="evenodd"/>
 <path d="m606.32 459.73v120.23l99.109-49.555v-110.32l-49.555 19.82z" fill="#fff" fill-rule="evenodd"/>
 <g clip-path="url(#b)">
  <path d="m891.26 364.62h-24.777v24.777c0 6.8398-5.5391 12.391-12.391 12.391-6.8516 0-12.387-5.5508-12.387-12.391v-24.777h-24.777c-6.8516 0-12.391-5.5508-12.391-12.387 0-6.8398 5.5391-12.391 12.391-12.391h24.777v-24.777c0-6.8398 5.5352-12.387 12.387-12.387 6.8516 0 12.391 5.5469 12.391 12.387v24.777h24.777c6.8477 0 12.387 5.5508 12.387 12.391 0 6.8359-5.5391 12.387-12.387 12.387zm0 235.39h-61.945c-6.8516 0-12.387-5.5508-12.387-12.387 0-6.8398 5.5352-12.391 12.387-12.391h61.945c6.8477 0 12.387 5.5508 12.387 12.391 0 6.8359-5.5391 12.387-12.387 12.387zm0 49.555h-24.777c-6.8516 0-12.391-5.5508-12.391-12.387 0-6.8398 5.5391-12.391 12.391-12.391h24.777c6.8477 0 12.387 5.5508 12.387 12.391 0 6.8359-5.5391 12.387-12.387 12.387zm-74.332 0h-49.559c-6.8477 0-12.387-5.5508-12.387-12.387 0-6.8398 5.5391-12.391 12.387-12.391h49.559c6.8477 0 12.387 5.5508 12.387 12.391 0 6.8359-5.5391 12.387-12.387 12.387zm-86.723-111.5c0 4.6953-2.6523 8.9844-6.8516 11.09l-123.89 61.945c-0.17578 0.085938-0.38672 0.046875-0.58203 0.13281-1.5859 0.69531-3.2461 1.168-4.957 1.168-1.7109 0-3.3711-0.47266-4.9531-1.168-0.19922-0.085937-0.41016-0.046874-0.58594-0.13281l-123.89-61.945c-4.1992-2.1055-6.8516-6.3945-6.8516-11.09v-107.3c0-10.902-3.0195-23.773 1.8711-34.059 3.5312-7.3711 13.145-10.082 20.109-13.562l59.516-29.758 49.242-24.629c3.4844-1.7344 7.5977-1.7344 11.078 0l94.289 47.148c10.047 5.0195 21.605 8.1289 30.156 15.773 7.8398 7 6.293 15.301 6.293 24.824zm-309.72-210.61h-61.945c-6.8516 0-12.387-5.5508-12.387-12.391s5.5352-12.387 12.387-12.387h61.945c6.8516 0 12.387 5.5469 12.387 12.387s-5.5352 12.391-12.387 12.391zm0 49.555h-24.777c-6.8516 0-12.391-5.5508-12.391-12.391 0-6.8398 5.5391-12.387 12.391-12.387h24.777c6.8516 0 12.387 5.5469 12.387 12.387 0 6.8398-5.5352 12.391-12.387 12.391zm-16.02 251.4c4.8438 4.8438 4.8438 12.676 0 17.52-2.4141 2.4141-5.5859 3.6289-8.7578 3.6289s-6.3438-1.2148-8.7617-3.6289l-28.406-28.406-28.406 28.406c-2.418 2.4141-5.5859 3.6289-8.7578 3.6289s-6.3438-1.2148-8.7617-3.6289c-4.8438-4.8438-4.8438-12.676 0-17.52l28.41-28.406-28.41-28.406c-4.8438-4.8438-4.8438-12.676 0-17.52s12.676-4.8438 17.52 0l28.406 28.41 28.406-28.41c4.8477-4.8438 12.676-4.8438 17.52 0s4.8438 12.676 0 17.52l-28.406 28.406zm-120.26-263.79c0-6.8398 5.5391-12.387 12.391-12.387h49.555c6.8516 0 12.387 5.5469 12.387 12.387 0 6.8398-5.5352 12.391-12.387 12.391h-49.555c-6.8516 0-12.391-5.5508-12.391-12.391zm12.391-61.941h12.387c6.8516 0 12.391 5.5469 12.391 12.387s-5.5391 12.391-12.391 12.391h-12.387c-6.8516 0-12.391-5.5508-12.391-12.391s5.5391-12.387 12.391-12.387zm470.77 272.55h12.391c6.8516 0 12.387 5.5508 12.387 12.391 0 6.8359-5.5352 12.387-12.387 12.387h-12.391c-6.8477 0-12.387-5.5508-12.387-12.387 0-6.8398 5.5391-12.391 12.387-12.391zm142.5-334.5h-631.88c-30.723 0-55.727 25-55.727 55.738v390.26h743.33v-390.26c0-30.738-25-55.738-55.727-55.738z" fill="#fff" fill-rule="evenodd"/>
 </g>
 <g clip-path="url(#a)">
  <path d="m663.82 823.03c-1.6484 28.852 10.938 57.199 33.809 74.309h-207.39c22.871-17.109 35.469-45.469 33.809-74.336zm-441.56-55.75c0 30.723 25 55.723 55.727 55.723h221.21c1.7617 21.707-7.6406 43.129-25.062 55.406l-22.297 15.73c-1.4258 0.98047-2.6172 2.1953-3.5938 3.5195-15.562 1.6367-27.762 14.668-27.762 30.648 0 17.074 13.887 30.973 30.969 30.973h284.94c17.086 0 30.973-13.898 30.973-30.973 0-15.969-12.191-29-27.738-30.648-0.95312-1.3125-2.1445-2.4883-3.5312-3.4805l-22.348-15.746c-17.418-12.277-26.848-33.711-25.074-55.43h221.19c30.738 0 55.727-25 55.727-55.723v-55.773h-743.33z" fill="#fff" fill-rule="evenodd"/>
 </g>
</svg>
