<?xml version="1.0" encoding="UTF-8"?>
<svg width="1200pt" height="1200pt" version="1.1" viewBox="0 0 1200 1200" xmlns="http://www.w3.org/2000/svg">
 <g fill="#0b70c2">
  <path d="m504.81 91.719c-52.664 32.898-95.809 78.996-125.16 133.72-38.695 2.3633-76.121 14.707-108.63 35.828l20.434 31.445c29.809-19.355 64.512-29.828 100.05-30.199 3.4531-0.039063 6.832-1.0352 9.7578-2.8711 2.9297-1.8398 5.2891-4.4531 6.8242-7.5508 26.414-53.176 67.148-97.93 117.61-129.21 50.465-31.285 108.66-47.867 168.04-47.875 50.781-0.15234 100.84 11.988 145.91 35.391l17.23-33.305c-54.91-28.312-116.25-41.855-177.97-39.293-61.73 2.5664-121.73 21.145-174.1 53.914z"/>
  <path d="m209.67 320.39 30.664 21.582c7.2148-10.242 15.438-19.734 24.543-28.34l-25.75-27.262h0.003906c-10.934 10.328-20.801 21.723-29.461 34.02z"/>
  <path d="m975 412.5h-0.625c0.41406-6.2539 0.625-12.516 0.625-18.75-0.007812-66.691-23.711-131.21-66.883-182.05-43.168-50.832-103-84.676-168.8-95.488s-133.32 2.1094-190.48 36.457c-57.168 34.352-100.27 87.895-121.61 151.08-38.336-8.7422-78.57-2.1016-112.06 18.504-33.492 20.602-57.562 53.52-67.039 91.68-33.965-4.2266-68.441 0.92578-99.688 14.898-31.246 13.973-58.07 36.23-77.566 64.363-19.5 28.129-30.922 61.062-33.035 95.223-2.1172 34.164 5.1602 68.254 21.043 98.574 15.879 30.32 39.754 55.715 69.039 73.434 29.285 17.715 62.863 27.078 97.09 27.074h93.75v-37.5h-93.75c-42.781 0.019531-83.531-18.227-112.01-50.152-28.477-31.926-41.965-74.488-37.078-116.99 4.8867-42.5 27.691-80.891 62.672-105.52 34.98-24.625 78.812-33.145 120.47-23.41 5.2227 1.2109 10.719 0.12891 15.094-2.9766 4.3711-3.1016 7.207-7.9336 7.7852-13.266 3.8086-34.504 23.332-65.32 52.898-83.504 29.57-18.188 65.879-21.707 98.391-9.543 4.9688 1.8633 10.496 1.5352 15.207-0.90625 4.7109-2.4414 8.168-6.7656 9.5117-11.902 15.059-57.293 50.461-107.15 99.598-140.24 49.137-33.094 108.64-47.16 167.39-39.574 58.754 7.582 112.73 36.305 151.86 80.793 39.117 44.484 60.699 101.7 60.711 160.94-0.003906 12.105-0.89844 24.195-2.6758 36.168-0.86328 5.8086 1.0469 11.688 5.1562 15.883 4.1094 4.1914 9.9453 6.2188 15.77 5.4727 41.113-5.3242 82.594 6.6055 114.6 32.957 32.004 26.352 51.672 64.773 54.34 106.14 2.6641 41.371-11.91 82-40.266 112.24-28.359 30.238-67.965 47.395-109.42 47.391h-93.75v37.5h93.75c49.727 0 97.418-19.754 132.58-54.918 35.164-35.164 54.918-82.855 54.918-132.58s-19.754-97.418-54.918-132.58c-35.164-35.164-82.855-54.918-132.58-54.918z"/>
  <path d="m356.25 506.25v562.5c0 4.9727 1.9766 9.7422 5.4922 13.258 3.5156 3.5156 8.2852 5.4922 13.258 5.4922h18.75v56.25c0 4.9727 1.9766 9.7422 5.4922 13.258 3.5156 3.5156 8.2852 5.4922 13.258 5.4922h74.961c4.1797 0 8.2422-1.3984 11.539-3.9727 3.2969-2.5742 5.6367-6.1719 6.6484-10.23l15.199-60.797h158.3l15.199 60.797h0.003906c1.0117 4.0586 3.3516 7.6562 6.6484 10.23 3.2969 2.5742 7.3594 3.9727 11.539 3.9727h74.961c4.9727 0 9.7422-1.9766 13.258-5.4922 3.5156-3.5156 5.4922-8.2852 5.4922-13.258v-56.25h18.75c4.9727 0 9.7422-1.9766 13.258-5.4922 3.5156-3.5156 5.4922-8.2852 5.4922-13.258v-450h-37.5v431.25h-412.5v-525h75v-37.5h-93.75c-4.9727 0-9.7422 1.9766-13.258 5.4922-3.5156 3.5156-5.4922 8.2852-5.4922 13.258zm116.57 618.75h-41.57v-37.5h50.945zm295.93 0h-41.57l-9.375-37.5h50.945z"/>
  <path d="m468.75 581.25c-4.9727 0-9.7422 1.9766-13.258 5.4922-3.5156 3.5156-5.4922 8.2852-5.4922 13.258v150c0 4.9727 1.9766 9.7422 5.4922 13.258 3.5156 3.5156 8.2852 5.4922 13.258 5.4922h262.5c4.9727 0 9.7422-1.9766 13.258-5.4922 3.5156-3.5156 5.4922-8.2852 5.4922-13.258v-142.23l50.758-50.758c3.5156-3.5156 5.4922-8.2852 5.4922-13.258v-75h-37.5v67.234l-45.266 45.266h-59.469l61.742-61.742c3.5156-3.5156 5.4922-8.2852 5.4922-13.258v-150h18.75c4.9727 0 9.7422-1.9766 13.258-5.4922 3.5156-3.5156 5.4922-8.2852 5.4922-13.258v-75c0-4.9727-1.9766-9.7422-5.4922-13.258-3.5156-3.5156-8.2852-5.4922-13.258-5.4922h-75c-4.9727 0-9.7422 1.9766-13.258 5.4922-3.5156 3.5156-5.4922 8.2852-5.4922 13.258v75c0 4.9727 1.9766 9.7422 5.4922 13.258 3.5156 3.5156 8.2852 5.4922 13.258 5.4922h18.75v142.23l-82.766 82.766h-29.734v-112.5h18.75c4.9727 0 9.7422-1.9766 13.258-5.4922 3.5156-3.5156 5.4922-8.2852 5.4922-13.258v-75c0-4.9727-1.9766-9.7422-5.4922-13.258-3.5156-3.5156-8.2852-5.4922-13.258-5.4922h-75c-4.9727 0-9.7422 1.9766-13.258 5.4922-3.5156 3.5156-5.4922 8.2852-5.4922 13.258v75c0 4.9727 1.9766 9.7422 5.4922 13.258 3.5156 3.5156 8.2852 5.4922 13.258 5.4922h18.75v112.5zm225-300h37.5v37.5h-37.5zm-150 112.5h37.5v37.5h-37.5zm168.75 337.5h-225v-112.5h225z"/>
  <path d="m693.75 806.25h37.5v37.5h-37.5z"/>
  <path d="m618.75 806.25h37.5v37.5h-37.5z"/>
  <path d="m468.75 881.25h262.5v37.5h-262.5z"/>
  <path d="m768.75 393.75h37.5v37.5h-37.5z"/>
 </g>
</svg>
