<svg width="506" height="604" viewBox="0 0 506 604" fill="none" xmlns="http://www.w3.org/2000/svg">
<path d="M6.10352e-05 78.8228C6.10352e-05 72.2747 3.22161 66.1078 8.69788 62.1726L89.401 4.18132C97.1595 -1.39378 107.841 -1.39377 115.599 4.18133L196.302 62.1726C201.779 66.1078 205 72.2747 205 78.8228V180.169C205 191.673 195.241 201 183.203 201H21.797C9.75886 201 6.10352e-05 191.673 6.10352e-05 180.169V78.8228Z" fill="#0C71C3"/>
<path d="M71 352.783C71 339.426 77.8045 326.847 89.3715 318.82L259.832 200.529C276.22 189.157 298.78 189.157 315.168 200.529L485.629 318.82C497.195 326.847 504 339.426 504 352.783V559.508C504 582.976 483.387 602 457.961 602H117.039C91.6125 602 71 582.976 71 559.508V352.783Z" fill="white" stroke="#FEC500" stroke-width="4"/>
<path d="M153 442.55C153 451.476 157.243 459.883 164.456 465.247L270.748 544.3C280.966 551.9 295.034 551.9 305.252 544.3L411.544 465.247C418.757 459.883 423 451.476 423 442.55V304.397C423 288.714 410.147 276 394.292 276H181.708C165.853 276 153 288.714 153 304.397V442.55Z" fill="#0C71C3"/>
</svg>
