<?xml version="1.0" encoding="UTF-8"?>
<svg width="1200pt" height="1200pt" version="1.1" viewBox="0 0 1200 1200" xmlns="http://www.w3.org/2000/svg">
 <g fill="#0b70c2" fill-rule="evenodd">
  <path d="m253.63 489.79h62.977c8.6914 0 15.742-7.0547 15.742-15.742 0-8.6914-7.0508-15.746-15.742-15.746h-62.977c-8.6914 0-15.746 7.0547-15.746 15.746 0 8.6875 7.0547 15.742 15.746 15.742z"/>
  <path d="m292.17 314.5 54.539 31.488c7.5273 4.3438 17.16 1.7617 21.508-5.7617 4.3438-7.5273 1.7617-17.164-5.7617-21.508l-54.539-31.488c-7.5273-4.3477-17.164-1.7656-21.508 5.7617-4.3477 7.5273-1.7656 17.16 5.7617 21.508z"/>
  <path d="m307.91 660.87 54.539-31.488c7.5273-4.3438 10.109-13.98 5.7656-21.508-4.3477-7.5234-13.98-10.105-21.508-5.7617l-54.539 31.488c-7.5273 4.3477-10.109 13.98-5.7617 21.508 4.3438 7.5273 13.98 10.109 21.504 5.7617z"/>
  <path d="m946.37 458.3h-62.977c-8.6914 0-15.742 7.0547-15.742 15.746 0 8.6875 7.0508 15.742 15.742 15.742h62.977c8.6914 0 15.742-7.0547 15.742-15.742 0-8.6914-7.0508-15.746-15.742-15.746z"/>
  <path d="m907.84 633.6-54.539-31.488c-7.5234-4.3438-17.16-1.7617-21.504 5.7656-4.3477 7.5234-1.7656 17.16 5.7617 21.504l54.539 31.488c7.5273 4.3477 17.16 1.7656 21.508-5.7617 4.3438-7.5273 1.7617-17.16-5.7656-21.508z"/>
  <path d="m892.09 287.23-54.539 31.488c-7.5273 4.3438-10.109 13.98-5.7656 21.504 4.3477 7.5273 13.98 10.109 21.508 5.7656l54.539-31.488c7.5273-4.3477 10.109-13.98 5.7617-21.508-4.3438-7.5273-13.98-10.109-21.504-5.7617z"/>
  <path d="m470.33 757.44c-7.4766 8.3594-12.027 19.398-12.027 31.488 0 12.094 4.5508 23.129 12.027 31.488-7.4766 8.3594-12.027 19.398-12.027 31.488 0 26.09 21.145 47.23 47.234 47.23h15.742v15.746c0 26.086 21.145 47.23 47.23 47.23h62.977c26.09 0 47.234-21.145 47.234-47.23v-15.746h15.742c26.09 0 47.234-21.141 47.234-47.23 0-12.09-4.5508-23.129-12.031-31.488 7.4805-8.3594 12.031-19.395 12.031-31.488 0-12.09-4.5508-23.129-12.031-31.488 7.7305-8.6289 12.031-19.836 12.031-31.488 0-12.973 0-27.961 0.3125-40.777v-0.375c0-13.383 5.7148-26.121 15.699-35.031 0.015624 0 0.03125-0.015625 0.046874-0.03125 48.129-43.25 78.406-105.96 78.406-175.69 0-130.35-105.82-236.16-236.16-236.16-130.34 0-236.16 105.82-236.16 236.16 0 69.762 30.309 132.5 78.66 175.51 10.059 8.9453 15.805 21.777 15.805 35.238v41.152c0 11.652 4.2969 22.859 12.027 31.488zm176.9 141.7v15.746c0 8.6914-7.0547 15.742-15.746 15.742h-62.977c-8.6875 0-15.742-7.0508-15.742-15.742v-15.746zm47.23-62.973h-188.93c-8.6914 0-15.746 7.0508-15.746 15.742s7.0547 15.746 15.746 15.746h188.93c8.6914 0 15.746-7.0547 15.746-15.746s-7.0547-15.742-15.746-15.742zm15.746-47.234c0-8.6914-7.0547-15.742-15.746-15.742h-188.93c-8.6914 0-15.746 7.0508-15.746 15.742 0 8.6914 7.0547 15.746 15.746 15.746h188.93c8.6914 0 15.746-7.0547 15.746-15.746zm-220.42-62.977v-41.152c0-22.453-9.5859-43.832-26.355-58.758v-0.015625c-41.879-37.25-68.109-91.566-68.109-151.98 0-112.96 91.711-204.68 204.67-204.68 112.96 0 204.68 91.711 204.68 204.68 0 60.441-26.262 114.79-67.969 152.26-16.625 14.832-26.168 36.117-26.184 58.461-0.3125 12.828-0.3125 28.023-0.3125 41.184 0 4.1719-1.6523 8.1875-4.6133 11.133-2.9453 2.9609-6.9609 4.6133-11.133 4.6133h-188.93c-4.1758 0-8.1875-1.6523-11.133-4.6133-2.9609-2.9453-4.6133-6.9609-4.6133-11.133z"/>
  <path d="m584.26 694.46v-188.93c0-26.09-21.145-47.234-47.23-47.234h-31.488c-8.6914 0-15.746 7.0547-15.746 15.746 0 8.6875 7.0547 15.742 15.746 15.742h31.488c8.6875 0 15.742 7.0547 15.742 15.746v188.93c0 8.6914 7.0547 15.746 15.742 15.746 8.6914 0 15.746-7.0547 15.746-15.746z"/>
  <path d="m694.46 458.3h-31.488c-26.086 0-47.23 21.145-47.23 47.234v188.93c0 8.6914 7.0547 15.746 15.742 15.746 8.6914 0 15.746-7.0547 15.746-15.746v-188.93c0-8.6914 7.0547-15.746 15.742-15.746h31.488c8.6914 0 15.746-7.0547 15.746-15.742 0-8.6914-7.0547-15.746-15.746-15.746z"/>
 </g>
</svg>
