<?xml version="1.0" encoding="UTF-8"?>
<svg width="1200pt" height="1200pt" version="1.1" viewBox="0 0 1200 1200" xmlns="http://www.w3.org/2000/svg">
 <g fill="#fff">
  <path d="m647.36 894.07h-94.727c-13.398 0-25.777 7.1484-32.477 18.75-6.6992 11.602-6.6992 25.898 0 37.5 6.6992 11.602 19.078 18.75 32.477 18.75h94.727c13.398 0 25.777-7.1484 32.477-18.75 6.6992-11.602 6.6992-25.898 0-37.5-6.6992-11.602-19.078-18.75-32.477-18.75z"/>
  <path d="m319.73 112.5c-29.84 0-58.453 11.852-79.551 32.949-21.098 21.098-32.949 49.715-32.949 79.551v750c0 29.836 11.852 58.453 32.949 79.551 21.098 21.098 49.711 32.949 79.551 32.949h560.55c29.84 0 58.453-11.852 79.551-32.949 21.098-21.098 32.949-49.715 32.949-79.551v-750c0-29.836-11.852-58.453-32.949-79.551-21.098-21.098-49.711-32.949-79.551-32.949zm598.05 112.5v750c0 9.9453-3.9492 19.484-10.98 26.516-7.0352 7.0352-16.574 10.984-26.52 10.984h-560.55c-9.9453 0-19.484-3.9492-26.52-10.984-7.0312-7.0312-10.98-16.57-10.98-26.516v-750c0-9.9453 3.9492-19.484 10.98-26.516 7.0352-7.0352 16.574-10.984 26.52-10.984h560.55c9.9453 0 19.484 3.9492 26.52 10.984 7.0312 7.0312 10.98 16.57 10.98 26.516z"/>
  <path d="m802.5 245.14h-405c-15.914 0-31.176 6.3203-42.426 17.574-11.254 11.254-17.574 26.512-17.574 42.426v495c0 15.914 6.3203 31.176 17.574 42.426 11.25 11.254 26.512 17.574 42.426 17.574h427.5c13.398 0 25.777-7.1484 32.477-18.75 6.6992-11.602 6.6992-25.898 0-37.5-6.6992-11.602-19.078-18.75-32.477-18.75h-412.5v-465h375v384.38c0 13.398 7.1484 25.777 18.75 32.477s25.898 6.6992 37.5 0 18.75-19.078 18.75-32.477v-399.38c0-15.914-6.3203-31.172-17.574-42.426-11.25-11.254-26.512-17.574-42.426-17.574z"/>
 </g>
</svg>
