<?xml version="1.0" encoding="UTF-8"?>
<svg width="1200pt" height="1200pt" version="1.1" viewBox="0 0 1200 1200" xmlns="http://www.w3.org/2000/svg">
 <path d="m351.99 0c-58.668 0-106.67 48-106.67 106.67v986.66c0 58.668 48 106.67 106.67 106.67h495.99c58.668 0 106.67-48 106.67-106.67v-986.66c0-58.668-48-106.67-106.67-106.67zm188.55 102.73h118.93c7.8203 0 14.156 8.9609 14.156 20.008 0 11.043-6.3359 20.008-14.156 20.008h-118.93c-7.8203 0-14.156-8.9609-14.156-20.008 0-11.043 6.3359-20.008 14.156-20.008zm-236.62 142.61h592.16v709.33h-592.16zm296.08 765.96c36.469 0 66.039 29.57 66.039 66.039s-29.57 66.039-66.039 66.039-66.039-29.57-66.039-66.039 29.57-66.039 66.039-66.039z" fill="#fff"/>
</svg>
