<?xml version="1.0" encoding="UTF-8"?>
<svg width="1200pt" height="1200pt" version="1.1" viewBox="0 0 1200 1200" xmlns="http://www.w3.org/2000/svg">
 <g fill="#0b70c2">
  <path d="m1077.3 56.605h-954.57c-48.93 0-88.754 39.82-88.754 88.762v743.09c0 48.941 39.82 88.754 88.754 88.754h206.3c-20.934 33.648-38.984 54.027-38.984 91.473v26.488c0 26.59 21.625 48.223 48.223 48.223h523.47c26.598 0 48.223-21.637 48.223-48.223v-26.488c0-33.805-19.441-61.645-38.984-91.473h206.32c48.93 0 88.754-39.812 88.754-88.754v-743.09c0.007812-48.941-39.816-88.762-88.746-88.762zm-212.62 1038.6c0 1.5352-1.3945 2.9414-2.9414 2.9414h-523.48c-1.5469 0-2.9414-1.4023-2.9414-2.9414 0.9375-18.754-2.9609-35.449 6.082-52.094l40.926-65.867h434.99c23.754 39.246 47.363 66.621 47.363 91.473zm256.09-206.71c0 23.969-19.5 43.469-43.469 43.469h-954.57c-23.969 0-43.469-19.5-43.469-43.469v-53.664h1041.5zm0-98.945h-1041.5v-644.14c0-23.98 19.5-43.48 43.469-43.48h954.57c23.969 0 43.469 19.5 43.469 43.48z"/>
  <path d="m656.8 217.17c-12.094-20.164-33.363-32.203-56.867-32.203-23.594 0-44.797 12.094-56.672 32.258l-232.3 389.27c-12.316 20.617-12.582 45.438-0.70703 66.375 11.918 20.996 33.41 33.52 57.488 33.52h464.29c24.078 0 45.57-12.527 57.488-33.52 11.875-20.938 11.609-45.758-0.68359-66.344zm193.31 433.36c-1.7891 3.1836-7.1641 10.582-18.086 10.582l-464.29-0.003907c-10.922 0-16.297-7.3945-18.086-10.582-1.8125-3.1602-5.3711-11.508 0.17578-20.816l232.36-389.39c5.3516-9.0859 14.172-10.07 17.734-10.07 3.582 0 12.492 0.99609 18 10.16l232.01 389.33c5.5508 9.2891 1.9883 17.633 0.17578 20.797z"/>
  <path d="m625.47 314.13h-50.945c-10.988 0-19.922 8.832-19.922 19.699v45.516c0 10.988 8.9336 19.922 19.922 19.922h50.945c10.855 0 19.699-8.9336 19.699-19.922v-45.516c0-10.867-8.8438-19.699-19.699-19.699zm-2.9414 62.496h-45.281v-39.855h45.281z"/>
  <path d="m625.47 408.77h-50.945c-10.988 0-19.922 8.9336-19.922 19.922v191.32c0 10.867 8.9336 19.699 19.922 19.699h50.945c10.855 0 19.699-8.832 19.699-19.699v-191.32c0-10.988-8.8438-19.922-19.699-19.922zm-2.9414 208.31h-45.281v-185.66h45.281z"/>
 </g>
</svg>
