<?xml version="1.0" encoding="UTF-8"?>
<svg width="1200pt" height="1200pt" version="1.1" viewBox="0 0 1200 1200" xmlns="http://www.w3.org/2000/svg">
 <path d="m100.71 316.79h103.97v6.2695c0 18.379 14.902 33.281 33.281 33.281h7.4805l-5.2891 5.2891c-12.992 12.992-12.992 34.078 0 47.07l32.398 32.398c12.992 12.992 34.078 12.992 47.07 0l5.2891-5.2891v7.4805c0 18.379 14.902 33.281 33.281 33.281h45.82c18.379 0 33.281-14.902 33.281-33.281v-7.4805l5.2891 5.2891c12.992 12.992 34.078 12.992 47.07 0l32.398-32.398c12.992-12.992 12.992-34.078 0-47.07l-5.2891-5.2891h7.4805c18.379 0 33.281-14.902 33.281-33.281v-6.2695h541.74c9.1953 0 16.641-7.4453 16.641-16.641 0-9.1953-7.4453-16.641-16.641-16.641h-541.71v-6.2695c0-18.379-14.902-33.281-33.281-33.281h-7.4805l5.2891-5.2891c12.992-12.992 12.992-34.078 0-47.07l-32.414-32.414c-12.992-12.992-34.078-12.992-47.07 0l-5.2891 5.2891v-7.4805c0-18.379-14.902-33.281-33.281-33.281h-45.82c-18.379 0-33.281 14.902-33.281 33.281v7.4805l-5.3008-5.2891c-12.992-12.992-34.078-12.992-47.07 0l-32.398 32.398c-12.992 12.992-12.992 34.078 0 47.07l5.2891 5.2891h-7.4805c-18.379 0-33.281 14.902-33.281 33.281v6.2695h-103.97c-9.1953 0-16.641 7.4453-16.641 16.641-0.011719 9.2109 7.4453 16.656 16.641 16.656zm137.25-39.551h32.621c2.9258-14.168 8.4961-27.355 16.188-39.035l-23.082-23.082 32.398-32.398 23.082 23.082c11.68-7.6914 24.871-13.262 39.035-16.188v-32.621h45.82v32.621c14.168 2.9258 27.355 8.4961 39.035 16.188l23.082-23.082 32.398 32.398-23.082 23.082c7.6914 11.68 13.262 24.871 16.188 39.035h32.633v45.82h-32.633c-2.9258 14.168-8.4961 27.355-16.188 39.035l23.082 23.082-32.398 32.398-23.082-23.082c-11.68 7.6914-24.871 13.262-39.035 16.188v32.621h-45.82v-32.621c-14.168-2.9258-27.355-8.4961-39.035-16.188l-23.082 23.082-32.398-32.398 23.082-23.082c-7.6914-11.68-13.262-24.871-16.188-39.035h-32.621zm861.32 306.12h-61.887v-6.2695c0-18.379-14.902-33.281-33.281-33.281h-7.4805l5.2891-5.2891c12.992-12.992 12.992-34.078 0-47.07l-32.398-32.398c-12.992-12.992-34.078-12.992-47.07 0l-5.2891 5.2891v-7.4922c0-18.379-14.902-33.281-33.281-33.281h-45.82c-18.379 0-33.281 14.902-33.281 33.281v7.4805l-5.2891-5.2891c-12.992-12.992-34.078-12.992-47.07 0l-32.398 32.398c-12.992 12.992-12.992 34.078 0 47.07l5.2891 5.2891h-7.4922c-18.379 0-33.281 14.902-33.281 33.281v7.3711l-583.79-1.1016h-0.023437c-9.1719 0-16.629 7.4336-16.641 16.617-0.011719 9.1836 7.4219 16.652 16.617 16.676l583.85 1.1016v5.168c0 18.379 14.902 33.281 33.281 33.281h7.4805l-5.2891 5.2891c-12.992 12.992-12.992 34.078 0 47.07l32.398 32.398c12.992 12.992 34.078 12.992 47.07 0l5.2891-5.2891v7.4922c0 18.379 14.902 33.281 33.281 33.281h45.82c18.379 0 33.281-14.902 33.281-33.281v-7.4805l5.2891 5.2891c12.992 12.992 34.078 12.992 47.07 0l32.398-32.398c12.992-12.992 12.992-34.078 0-47.07l-5.2891-5.2891h7.4922c18.379 0 33.281-14.902 33.281-33.281v-6.2695h61.887c9.1953 0 16.641-7.4453 16.641-16.641 0-9.1953-7.457-16.652-16.652-16.652zm-95.168 39.551h-32.621c-2.9258 14.168-8.4961 27.355-16.188 39.035l23.082 23.082-32.398 32.398-23.082-23.082c-11.68 7.6914-24.871 13.262-39.035 16.188v32.621h-45.82v-32.621c-14.168-2.9258-27.355-8.4961-39.035-16.188l-23.082 23.082-32.398-32.398 23.082-23.082c-7.6914-11.68-13.262-24.871-16.188-39.035h-32.621v-45.82h32.621c2.9258-14.168 8.4961-27.355 16.188-39.035l-23.082-23.082 32.398-32.398 23.082 23.082c11.68-7.6914 24.871-13.262 39.035-16.188v-32.621h45.82v32.621c14.168 2.9258 27.355 8.4961 39.035 16.188l23.082-23.082 32.398 32.398-23.082 23.082c7.6914 11.68 13.262 24.871 16.188 39.035h32.621zm95.18 260.3h-0.097656l-513.36 2.9023v-9.1719c0-18.379-14.902-33.281-33.281-33.281h-7.4805l5.2891-5.2891c12.992-12.992 12.992-34.078 0-47.07l-32.41-32.398c-12.992-12.992-34.078-12.992-47.07 0l-5.2891 5.2891v-7.4922c0-18.379-14.902-33.281-33.281-33.281h-45.82c-18.379 0-33.281 14.902-33.281 33.281v7.4805l-5.2891-5.2891c-12.992-12.992-34.078-12.992-47.07 0l-32.398 32.398c-12.992 12.992-12.992 34.078 0 47.07l5.2891 5.2891h-7.4922c-18.379 0-33.281 14.902-33.281 33.281v5.6094l-132.35 0.67188c-9.1836 0.050781-16.605 7.5312-16.555 16.727 0.050781 9.1602 7.4805 16.555 16.641 16.555h0.085937l132.17-0.66016v6.9297c0 18.379 14.902 33.281 33.281 33.281h7.4805l-5.2891 5.2891c-12.992 12.992-12.992 34.078 0 47.07l32.398 32.414c12.992 12.992 34.078 12.992 47.07 0l5.2891-5.2891v7.4922c0 18.379 14.902 33.281 33.281 33.281h45.82c18.379 0 33.281-14.902 33.281-33.281v-7.4805l5.3047 5.2773c12.992 12.992 34.078 12.992 47.07 0l32.398-32.398c12.992-12.992 12.992-34.078 0-47.07l-5.2891-5.2891h7.4922c18.379 0 33.281-14.902 33.281-33.281v-3.3555l513.55-2.9023c9.1953-0.050781 16.605-7.543 16.555-16.738-0.070313-9.1719-7.5039-16.57-16.652-16.57zm-546.75 39.551h-32.621c-2.9258 14.168-8.4961 27.355-16.188 39.035l23.082 23.082-32.398 32.398-23.082-23.082c-11.68 7.6914-24.871 13.262-39.035 16.188v32.621h-45.82v-32.621c-14.168-2.9258-27.355-8.4961-39.035-16.188l-23.082 23.082-32.398-32.398 23.082-23.082c-7.6914-11.68-13.262-24.871-16.188-39.035h-32.621v-45.82h32.621c2.9258-14.168 8.4961-27.355 16.188-39.035l-23.082-23.082 32.398-32.398 23.082 23.082c11.68-7.6914 24.871-13.262 39.035-16.188v-32.633h45.82v32.633c14.168 2.9258 27.355 8.4961 39.035 16.188l23.082-23.082 32.398 32.398-23.082 23.082c7.6914 11.68 13.262 24.871 16.188 39.035h32.621zm-171.43-547.73c20.582 0 39.27-8.3867 52.824-21.941 0.050782-0.035156 0.085938-0.085938 0.13281-0.12109 13.555-13.555 21.941-32.242 21.941-52.824 0-20.68-8.3867-39.402-21.941-52.961-13.555-13.555-32.277-21.941-52.961-21.941-20.484 0-39.133 8.3516-52.75 21.855l-0.13672 0.13672-0.066407 0.085938c-13.555 13.629-21.941 32.301-21.941 52.824 0 20.68 8.3867 39.402 21.941 52.961 13.555 13.539 32.277 21.926 52.957 21.926zm0-116.5c22.984 0 41.609 18.625 41.609 41.609 0 22.984-18.637 41.609-41.609 41.609-22.984 0-41.609-18.625-41.609-41.609 0.003906-22.984 18.629-41.609 41.609-41.609zm479.86 266.57c-20.582 0-39.27 8.3867-52.824 21.941-0.050782 0.035157-0.085938 0.085938-0.13281 0.12109-13.555 13.555-21.941 32.242-21.941 52.824 0 20.68 8.3867 39.402 21.941 52.961 13.555 13.555 32.277 21.941 52.961 21.941 20.484 0 39.133-8.3516 52.75-21.871 0.023437-0.023438 0.050781-0.050782 0.074219-0.074219l0.125-0.125c13.555-13.617 21.941-32.301 21.941-52.824 0-20.68-8.3867-39.402-21.941-52.961-13.562-13.559-32.285-21.934-52.953-21.934zm0 116.5c-22.984 0-41.609-18.625-41.609-41.609s18.625-41.609 41.609-41.609c22.984 0 41.609 18.625 41.609 41.609-0.015626 22.984-18.641 41.609-41.609 41.609zm-448.53 180.32c-20.582 0-39.27 8.3867-52.824 21.941-0.050782 0.035156-0.085938 0.085937-0.13281 0.12109-13.555 13.555-21.941 32.242-21.941 52.824 0 20.68 8.3867 39.402 21.941 52.961 13.555 13.555 32.277 21.941 52.961 21.941 20.484 0 39.133-8.3516 52.75-21.855l0.19922-0.19922c13.555-13.629 21.941-32.301 21.941-52.824 0-20.68-8.3867-39.402-21.941-52.961-13.562-13.574-32.285-21.949-52.953-21.949zm0 116.5c-22.984 0-41.609-18.625-41.609-41.609s18.625-41.609 41.609-41.609c22.984 0 41.609 18.625 41.609 41.609s-18.637 41.609-41.609 41.609z" fill="#0b70c2" fill-rule="evenodd"/>
</svg>
