<?xml version="1.0" encoding="UTF-8"?>
<svg width="1200pt" height="1200pt" version="1.1" viewBox="0 0 1200 1200" xmlns="http://www.w3.org/2000/svg">
 <g fill="#fff" fill-rule="evenodd">
  <path d="m600 108c-81.082-0.074219-160 26.156-224.9 74.758-64.902 48.598-112.29 116.94-135.04 194.77-22.75 77.824-19.637 160.93 8.8711 236.84 28.508 75.906 80.871 140.51 149.23 184.12v264.72c-0.027344 7.0117 2.5039 13.789 7.1211 19.066 4.6133 5.2773 10.996 8.6914 17.949 9.5977 6.9492 0.91016 13.992-0.75 19.809-4.6641l156.96-104.64 156.96 104.64c5.8164 3.9141 12.859 5.5742 19.809 4.6641 6.9531-0.90625 13.336-4.3203 17.949-9.5977 4.6172-5.2773 7.1484-12.055 7.1211-19.066v-264.72c68.27-43.66 120.55-108.27 149-184.15 28.449-75.879 31.539-158.93 8.8008-236.72-22.738-77.781-70.074-146.1-134.91-194.71-64.84-48.605-143.69-74.887-224.73-74.902zm144 901.32-128.04-85.32c-4.7305-3.1484-10.281-4.8281-15.961-4.8281s-11.23 1.6797-15.961 4.8281l-128.04 85.32v-180.6c45.625 19.02 94.57 28.812 144 28.812s98.375-9.793 144-28.812zm-144-209.4c-84.117 0-164.79-33.418-224.27-92.895-59.48-59.48-92.895-140.15-92.895-224.27 0-84.117 33.414-164.79 92.895-224.27 59.48-59.477 140.15-92.891 224.27-92.891s164.79 33.414 224.27 92.891c59.48 59.48 92.895 140.15 92.895 224.27-0.09375 84.086-33.539 164.7-93 224.16-59.457 59.457-140.07 92.902-224.16 93z"/>
  <path d="m829.2 415.32c-1.7148-5.0781-4.8125-9.5781-8.9492-12.992-4.1328-3.4141-9.1367-5.6055-14.449-6.3281l-124.44-18.121-55.559-109.92v0.003907c-3.2109-6.3984-8.6875-11.371-15.367-13.949-6.6758-2.5781-14.074-2.5781-20.75 0-6.6758 2.5781-12.152 7.5508-15.363 13.949l-55.559 109.92-124.56 18.117c-7.1992 1-13.758 4.6875-18.355 10.32-4.5938 5.6328-6.8906 12.797-6.4258 20.055 0.46875 7.2539 3.6641 14.066 8.9414 19.066l89.641 84.957-21.121 120c-1.2422 7.0742 0.20703 14.359 4.0547 20.422 3.8516 6.0625 9.8281 10.469 16.762 12.352 6.9297 1.8828 14.316 1.1094 20.703-2.1719l111.6-57 111.6 57.238c6.3867 3.2812 13.773 4.0586 20.703 2.1719 6.9336-1.8828 12.91-6.2852 16.762-12.352 3.8477-6.0625 5.2969-13.344 4.0547-20.418l-21.121-120.24 89.641-85.441v0.003907c3.918-3.7344 6.7031-8.4922 8.0391-13.734 1.3359-5.2422 1.1719-10.754-0.48047-15.906zm-148.2 84c-7.1484 6.5391-10.531 16.234-9 25.801l13.801 78.48-72.602-37.562c-8.25-4.2305-18.031-4.2305-26.277 0l-73.203 37.562 14.281-78.48c1.6914-9.5234-1.5078-19.262-8.5195-25.922l-58.199-55.199 80.398-11.398c9.3555-1.3398 17.465-7.1641 21.719-15.602l36.602-72 36.602 72c4.2539 8.4375 12.363 14.262 21.719 15.602l80.52 11.398z"/>
 </g>
</svg>
